<svg version="1.1" viewBox="0.0 0.0 390.90813648293965 639.0" fill="none" stroke="none" stroke-linecap="square" stroke-miterlimit="10" xmlns:xlink="http://www.w3.org/1999/xlink" xmlns="http://www.w3.org/2000/svg"><clipPath id="p.0"><path d="m0 0l390.90814 0l0 639.0l-390.90814 0l0 -639.0z" clip-rule="nonzero"/></clipPath><g clip-path="url(#p.0)"><path fill="#000000" fill-opacity="0.0" d="m0 0l390.90814 0l0 639.0l-390.90814 0z" fill-rule="evenodd"/><path fill="#0f0a07" d="m163.2573 181.97551l118.95627 42.013275l-109.91487 311.21277l-118.956276 -42.013275z" fill-rule="evenodd"/><path fill="#0f0a07" d="m42.953266 503.55875l174.96962 61.796173l-7.95932 22.53601l-174.96962 -61.796204z" fill-rule="evenodd"/><path fill="#0f0a07" d="m306.02643 232.3996l20.55365 7.259186l-109.91487 311.21274l-20.55365 -7.2592163z" fill-rule="evenodd"/><path fill="#0f0a07" d="m11.4410515 531.81604l213.25806 75.31903l-7.95932 22.53601l-213.25806 -75.31903z" fill-rule="evenodd"/><path fill="#0f0a07" d="m166.6686 169.14058l28.220474 -79.90552l0 0c15.585724 -44.130596 65.00363 -66.911194 110.37796 -50.88189c45.3743 16.029305 69.522736 64.79854 53.93698 108.92913l-28.220459 79.90552z" fill-rule="evenodd"/><path fill="#0f0a07" d="m162.12782 185.1735l29.042389 10.257263l-118.63814 335.91177l-29.042393 -10.257263z" fill-rule="evenodd"/><path fill="#0f0a07" d="m37.510437 518.9735l29.042397 10.257263l-11.694244 33.111023l-29.042397 -10.257263z" fill-rule="evenodd"/><path fill="#0f0a07" d="m56.47848 484.3088l152.80482 53.967987l-3.1361694 8.879761l-152.80484 -53.967987z" fill-rule="evenodd"/></g></svg>