<svg version="1.1" viewBox="0.0 0.0 809.3412073490814 783.0" fill="none" stroke="none" stroke-linecap="square" stroke-miterlimit="10" xmlns:xlink="http://www.w3.org/1999/xlink" xmlns="http://www.w3.org/2000/svg"><clipPath id="p.0"><path d="m0 0l809.3412 0l0 783.0l-809.3412 0l0 -783.0z" clip-rule="nonzero"/></clipPath><g clip-path="url(#p.0)"><path fill="#000000" fill-opacity="0.0" d="m0 0l809.3412 0l0 783.0l-809.3412 0z" fill-rule="evenodd"/><path fill="#000000" d="m216.50787 399.2979l0 0c0 -119.650116 96.995575 -216.64568 216.64566 -216.64568l0 0c57.458008 0 112.56271 22.825104 153.19162 63.45404c40.628967 40.628952 63.45404 95.73363 63.45404 153.19164l0 0c0 119.650085 -96.995544 216.64563 -216.64566 216.64563l0 0c-119.650085 0 -216.64566 -96.995544 -216.64566 -216.64563zm58.360016 0l0 0c0 87.41873 70.86691 158.28564 158.28564 158.28564c87.41879 0 158.28568 -70.86691 158.28568 -158.28564l0 0c0 -87.41876 -70.86688 -158.28568 -158.28568 -158.28568l0 0c-87.41873 0 -158.28564 70.86691 -158.28564 158.28568z" fill-rule="evenodd"/><path fill="#000000" d="m349.0433 213.35039l84.11023 -195.71652l84.11026 195.71652z" fill-rule="evenodd"/><path fill="#000000" d="m621.16644 326.11768l182.22034 168.54675l-215.85815 42.88629z" fill-rule="evenodd"/><path fill="#000000" d="m234.47615 442.78958l182.22035 168.54678l-215.85815 42.88629z" fill-rule="evenodd"/><path fill="#000000" d="m300.01968 270.7156l-46.42566 -151.95683l128.37842 69.972565z" fill-rule="evenodd"/><path fill="#000000" d="m475.98608 223.07724l154.7669 -126.857704l-26.451965 210.79471z" fill-rule="evenodd"/><path fill="#000000" d="m522.96716 217.02492l172.8504 34.551178l-40.881897 171.43309z" fill-rule="evenodd"/><path fill="#000000" d="m632.57355 423.01068l116.301025 309.79596l-274.0648 -136.34717z" fill-rule="evenodd"/><path fill="#000000" d="m601.7019 613.0106l-127.65451 164.59717l-20.975403 -202.23499z" fill-rule="evenodd"/><path fill="#000000" d="m507.88223 595.5237l-144.92917 100.78284l-21.275543 -126.735596z" fill-rule="evenodd"/><path fill="#000000" d="m242.68903 540.2653l-241.37613 -138.32602l279.1714 -124.66608z" fill-rule="evenodd"/><path fill="#000000" d="m222.27275 335.7805l-80.12599 -91.90552l206.89764 -18.67717z" fill-rule="evenodd"/></g></svg>