<svg version="1.1" viewBox="0.0 0.0 479.1364829396326 420.8635170603674" fill="none" stroke="none" stroke-linecap="square" stroke-miterlimit="10" xmlns:xlink="http://www.w3.org/1999/xlink" xmlns="http://www.w3.org/2000/svg"><clipPath id="p.0"><path d="m0 0l479.13647 0l0 420.86353l-479.13647 0l0 -420.86353z" clip-rule="nonzero"/></clipPath><g clip-path="url(#p.0)"><path fill="#000000" fill-opacity="0.0" d="m0 0l479.13647 0l0 420.86353l-479.13647 0z" fill-rule="evenodd"/><path fill="#0f0a07" d="m317.91592 376.71915l-18.017517 -64.74802l-10.8090515 68.63254l-12.612976 37.553802l41.439545 -24.603668z" fill-rule="evenodd"/><path stroke="#000000" stroke-width="1.0" stroke-linejoin="round" stroke-linecap="butt" d="m317.91592 376.71915l-18.017517 -64.74802l-10.8090515 68.63254l-12.612976 37.553802l41.439545 -24.603668z" fill-rule="evenodd"/><path fill="#532b02" d="m4.5341206 186.24118l66.576935 -7.594757l66.57959 -17.094925l28.718933 -18.99266l-6.5275116 18.99266l2.6115417 20.89038l-31.33049 9.496338l-73.10445 7.5986023z" fill-rule="evenodd"/><path fill="#f9cb9c" d="m329.59448 104.8304l0 0c38.859955 38.85997 38.859955 101.86444 0 140.72441q-30.086182 30.086182 -70.36221 49.982483q-40.27603 -19.896301 -70.36221 -49.982483l0 0c-38.85997 -38.85997 -38.85997 -101.86444 0 -140.72441l0 0c38.85997 -38.85997 101.86444 -38.85997 140.72443 0z" fill-rule="evenodd"/><path stroke="#ffe0b5" stroke-width="1.0" stroke-linejoin="round" stroke-linecap="butt" d="m329.59448 104.8304l0 0c38.859955 38.85997 38.859955 101.86444 0 140.72441q-30.086182 30.086182 -70.36221 49.982483q-40.27603 -19.896301 -70.36221 -49.982483l0 0c-38.85997 -38.85997 -38.85997 -101.86444 0 -140.72441l0 0c38.85997 -38.85997 101.86444 -38.85997 140.72443 0z" fill-rule="evenodd"/><path fill="#0f0a07" d="m228.56299 24.71916l20.719162 2.5905514l20.719162 -10.359581l25.900269 -6.475065l34.963257 25.897638l-42.734924 68.632545l-86.761154 29.784775l-36.259842 -33.66929l11.656174 -45.322834" fill-rule="evenodd"/><path fill="#000000" d="m254.46326 216.14336l24.603668 6.475067l31.078735 -1.2965851l29.78479 -10.359589l11.653534 -34.963257l2.5905457 42.73491l1.2939758 -20.719162l19.425201 23.307098l1.2939453 18.131226l-12.94751 16.834656l-10.362183 23.309692l-31.078735 24.603699l-44.02887 16.834625l-55.682434 -22.015747l-59.56955 -25.897644l38.850388 -51.800507l15.538071 1.2965851" fill-rule="evenodd"/><path stroke="#000000" stroke-width="1.0" stroke-linejoin="round" stroke-linecap="butt" d="m254.46326 216.14336l24.603668 6.475067l31.078735 -1.2965851l29.78479 -10.359589l11.653534 -34.963257l2.5905457 42.73491l1.2939758 -20.719162l19.425201 23.307098l1.2939453 18.131226l-12.94751 16.834656l-10.362183 23.309692l-31.078735 24.603699l-44.02887 16.834625l-55.682434 -22.015747l-59.56955 -25.897644l38.850388 -51.800507l15.538071 1.2965851" fill-rule="evenodd"/><path fill="#0f0a07" d="m156.04593 200.83365l-3.8871307 28.48819l-14.244095 10.362198l23.309708 3.8845215l-1.2939606 14.244095l14.244095 -9.065628l12.950119 5.1811066l-6.475052 -27.19423l12.950119 -25.900253l-22.015747 -19.425201z" fill-rule="evenodd"/><path fill="#0f0a07" d="m161.22441 191.53906l4.6501465 23.309708l18.60376 24.603668l18.600601 12.950134l26.355057 -19.425201l6.1991577 -19.425186l7.751297 -24.603683l0 55.685043l13.953613 7.7690277l-6.2023163 -69.92914l31.005203 -7.7690277l49.605804 -5.1810913l24.802917 -6.4724426l40.30551 -5.1811066l3.1011353 -18.128601l-89.911316 11.653534z" fill-rule="evenodd"/><path fill="#0f0a07" d="m319.21127 145.03462l20.719177 17.067398l3.8845215 29.021164l5.178467 29.0177l-7.769043 27.311996l15.54071 -29.0177l11.653534 15.361694l20.719147 -6.8262634l-20.719147 -11.950302l7.7690125 -17.070862l-11.653534 -18.776566l-3.8845215 -44.38286" fill-rule="evenodd"/><path stroke="#000000" stroke-width="1.0" stroke-linejoin="round" stroke-linecap="butt" d="m319.21127 145.03462l20.719177 17.067398l3.8845215 29.021164l5.178467 29.0177l-7.769043 27.311996l15.54071 -29.0177l11.653534 15.361694l20.719147 -6.8262634l-20.719147 -11.950302l7.7690125 -17.070862l-11.653534 -18.776566l-3.8845215 -44.38286" fill-rule="evenodd"/><path fill="#0f0a07" d="m354.17453 138.67455l44.02887 -12.94751l49.207367 -9.06562l22.015747 3.8845139l9.062988 15.54068l-10.359589 18.128616l-25.897644 6.475067l-38.850372 -3.8845215l-27.194244 3.8845215l-19.42517 2.5905457z" fill-rule="evenodd"/><path stroke="#000000" stroke-width="1.0" stroke-linejoin="round" stroke-linecap="butt" d="m354.17453 138.67455l44.02887 -12.94751l49.207367 -9.06562l22.015747 3.8845139l9.062988 15.54068l-10.359589 18.128616l-25.897644 6.475067l-38.850372 -3.8845215l-27.194244 3.8845215l-19.42517 2.5905457z" fill-rule="evenodd"/><path fill="#784321" d="m478.4895 139.97113l-6.475067 -22.015747l-16.834656 -9.062996l-32.375305 3.8845139l-27.194244 5.178482l-38.847748 15.54068l-18.128632 7.7690277l-46.619415 7.771652l-55.68242 12.94751l-56.979004 14.246719l-42.73491 11.653549l-56.978996 5.1810913l-33.66929 0l-45.322838 -6.475067l54.388454 14.244095l28.49081 1.2939758l49.20735 0l72.51706 -14.244095l36.259842 -12.950134l59.56955 -11.653549l59.566925 -18.131226l41.438324 -16.834656l34.96588 -6.472435l27.194214 0z" fill-rule="evenodd"/><path fill="#784321" d="m154.74934 174.93376l5.1811066 -44.02887l2.5879211 -37.55381l-3.8845062 -49.207348l22.015747 -10.359581l47.913376 -9.065617l-32.37532 29.784779l-12.94751 36.25984l6.4724426 20.719162l5.1811066 -25.90026l16.83464 -18.128609l33.669296 -29.784779l22.013123 -20.719158l29.78476 -14.244095l27.194244 14.244095l19.425201 16.834644l-7.769043 31.07874l0 20.719162l20.719177 50.503944" fill-rule="evenodd"/><path fill="#0f0a07" d="m366.05804 136.08661l-77.695526 7.7690277l-42.73491 -15.54068l25.900253 15.54068l-31.08136 -10.359573l20.721802 14.244095l-22.015762 2.5905457l-29.784775 6.475067l-34.963257 9.062988l-18.128601 6.475067l-23.309723 12.950134l38.84778 -5.178482l66.04462 -14.246719l75.107605 -14.244095" fill-rule="evenodd"/><path stroke="#000000" stroke-width="1.0" stroke-linejoin="round" stroke-linecap="butt" d="m366.05804 136.08661l-77.695526 7.7690277l-42.73491 -15.54068l25.900253 15.54068l-31.08136 -10.359573l20.721802 14.244095l-22.015762 2.5905457l-29.784775 6.475067l-34.963257 9.062988l-18.128601 6.475067l-23.309723 12.950134l38.84778 -5.178482l66.04462 -14.246719l75.107605 -14.244095" fill-rule="evenodd"/><path fill="#0f0a07" d="m264.82285 193.06299l20.719147 -10.359573l22.013123 -5.178482l19.425201 5.178482l10.359589 9.065613l12.950134 -2.5905457l1.2939453 -31.07875l-90.648285 14.244095l-9.063004 10.359589z" fill-rule="evenodd"/><path stroke="#000000" stroke-width="1.0" stroke-linejoin="round" stroke-linecap="butt" d="m264.82285 193.06299l20.719147 -10.359573l22.013123 -5.178482l19.425201 5.178482l10.359589 9.065613l12.950134 -2.5905457l1.2939453 -31.07875l-90.648285 14.244095l-9.063004 10.359589z" fill-rule="evenodd"/><path fill="#000000" d="m248.21854 173.6378l16.993195 17.2677l30.899017 13.813461l40.164337 8.63385l-26.261658 6.9049835l-33.98642 -6.9049835l-27.808472 -20.72194" fill-rule="evenodd"/><path fill="#360d11" d="m156.9262 220.25984l-19.578903 22.015747l-9.790863 28.488205l33.56505 28.490814l-22.376694 11.653534l19.578888 23.309692l51.7493 20.719177l37.760315 20.719147l33.565033 41.438324l16.783936 -36.257202l4.195282 -37.553802l0 -23.309723l5.592743 34.963257l2.797821 23.309692l33.565033 -31.078735l15.383606 -24.603668l11.1883545 -32.375336l1.4003296 -27.194214l-11.1883545 -10.359573l-23.777008 27.19423l-60.137024 31.078735l43.355927 -28.48819l25.174469 -27.19423l15.383636 -14.244095l-4.195282 -19.425201l-1.4002991 -22.015747l-22.376709 16.834656l-25.1745 7.771652l-39.157776 2.5879211l-23.777008 -11.653549" fill-rule="evenodd"/><path fill="#0f0a07" d="m284.08698 184.0l21.475159 16.83464l26.079865 14.244095l19.942322 -12.950119l-4.604706 19.425186l-42.950317 -7.7690277l-52.1566 -25.900253z" fill-rule="evenodd"/><path stroke="#000000" stroke-width="1.0" stroke-linejoin="round" stroke-linecap="butt" d="m284.08698 184.0l21.475159 16.83464l26.079865 14.244095l19.942322 -12.950119l-4.604706 19.425186l-42.950317 -7.7690277l-52.1566 -25.900253z" fill-rule="evenodd"/><path fill="#0f0a07" d="m131.43701 271.82678l34.665222 10.359558l46.220306 7.7716675l69.333374 -1.2966003l-51.9993 10.359589l-36.11145 0l-28.886215 2.5905457l-21.66687 -10.359558z" fill-rule="evenodd"/><path stroke="#000000" stroke-width="1.0" stroke-linejoin="round" stroke-linecap="butt" d="m131.43701 271.82678l34.665222 10.359558l46.220306 7.7716675l69.333374 -1.2966003l-51.9993 10.359589l-36.11145 0l-28.886215 2.5905457l-21.66687 -10.359558z" fill-rule="evenodd"/><path fill="#0f0a07" d="m140.69531 313.2651l-4.29451 19.42517l12.877731 14.24411l24.320099 1.2939453l70.10405 23.309723l17.169357 20.719177l25.749664 19.42517l-40.056976 -41.438324l-84.41136 -34.96585z" fill-rule="evenodd"/><path stroke="#000000" stroke-width="1.0" stroke-linejoin="round" stroke-linecap="butt" d="m140.69531 313.2651l-4.29451 19.42517l12.877731 14.24411l24.320099 1.2939453l70.10405 23.309723l17.169357 20.719177l25.749664 19.42517l-40.056976 -41.438324l-84.41136 -34.96585z" fill-rule="evenodd"/><path fill="#0f0a07" d="m214.3189 313.26672l34.963257 19.422577l24.603683 27.194214l11.656158 12.950134l0 -41.438324l-5.1810913 33.66928l-32.37271 -42.734894z" fill-rule="evenodd"/><path stroke="#000000" stroke-width="1.0" stroke-linejoin="round" stroke-linecap="butt" d="m214.3189 313.26672l34.963257 19.422577l24.603683 27.194214l11.656158 12.950134l0 -41.438324l-5.1810913 33.66928l-32.37271 -42.734894z" fill-rule="evenodd"/><path fill="#000000" fill-opacity="0.0" d="m332.15878 177.52493l-28.48819 19.425201" fill-rule="evenodd"/><path stroke="#000000" stroke-width="1.0" stroke-linejoin="round" stroke-linecap="butt" d="m332.15878 177.52493l-28.48819 19.425201" fill-rule="evenodd"/><path fill="#000000" fill-opacity="0.0" d="m333.45538 181.40945l-22.015747 15.54068l18.131226 -2.590561" fill-rule="evenodd"/><path stroke="#000000" stroke-width="1.0" stroke-linejoin="round" stroke-linecap="butt" d="m333.45538 181.40945l-22.015747 15.54068l18.131226 -2.590561" fill-rule="evenodd"/><path fill="#000000" fill-opacity="0.0" d="m276.47638 185.29396l22.013123 7.7690277" fill-rule="evenodd"/><path stroke="#000000" stroke-width="1.0" stroke-linejoin="round" stroke-linecap="butt" d="m276.47638 185.29396l22.013123 7.7690277" fill-rule="evenodd"/><path fill="#0f0a07" d="m298.4895 199.53806l32.375336 -25.897629l-46.619446 -1.2966003l-18.128601 15.540695z" fill-rule="evenodd"/><path stroke="#000000" stroke-width="1.0" stroke-linejoin="round" stroke-linecap="butt" d="m298.4895 199.53806l32.375336 -25.897629l-46.619446 -1.2966003l-18.128601 15.540695z" fill-rule="evenodd"/><path fill="#0f0a07" d="m189.7126 225.43832l44.02887 2.5905457l18.131226 25.897644l-19.425186 -29.78215l27.194214 20.719147l-18.128601 -20.719147l46.61679 24.603668l-50.501297 -28.490814l-29.78479 2.5905457l-34.965866 2.590561" fill-rule="evenodd"/><path stroke="#000000" stroke-width="1.0" stroke-linejoin="round" stroke-linecap="butt" d="m189.7126 225.43832l44.02887 2.5905457l18.131226 25.897644l-19.425186 -29.78215l27.194214 20.719147l-18.128601 -20.719147l46.61679 24.603668l-50.501297 -28.490814l-29.78479 2.5905457l-34.965866 2.590561" fill-rule="evenodd"/><path fill="#ff0000" d="m299.13254 180.11417l0 0c0 -2.1482544 1.7415161 -3.8897552 3.8897705 -3.8897552l0 0c1.0316162 0 2.020996 0.4098053 2.7504883 1.1392822c0.72946167 0.7294769 1.1392822 1.7188568 1.1392822 2.750473l0 0c0 2.1482697 -1.7415161 3.8897705 -3.8897705 3.8897705l0 0c-2.1482544 0 -3.8897705 -1.7415009 -3.8897705 -3.8897705z" fill-rule="evenodd"/><path stroke="#000000" stroke-width="1.0" stroke-linejoin="round" stroke-linecap="butt" d="m299.13254 180.11417l0 0c0 -2.1482544 1.7415161 -3.8897552 3.8897705 -3.8897552l0 0c1.0316162 0 2.020996 0.4098053 2.7504883 1.1392822c0.72946167 0.7294769 1.1392822 1.7188568 1.1392822 2.750473l0 0c0 2.1482697 -1.7415161 3.8897705 -3.8897705 3.8897705l0 0c-2.1482544 0 -3.8897705 -1.7415009 -3.8897705 -3.8897705z" fill-rule="evenodd"/><path fill="#0f0a07" d="m342.14172 38.603676l-43.146973 29.522308l-51.472443 17.409447l40.118103 -9.083984l6.8136597 33.307083l-3.0288696 -33.307083l9.083984 27.249344l-4.5433044 -28.763786l12.112854 -3.7847748l7.5695496 38.6063l-1.5144348 -44.661415l8.32547 -5.2992134l3.7847595 37.09186l1.5144653 -38.603672z" fill-rule="evenodd"/><path stroke="#000000" stroke-width="1.0" stroke-linejoin="round" stroke-linecap="butt" d="m342.14172 38.603676l-43.146973 29.522308l-51.472443 17.409447l40.118103 -9.083984l6.8136597 33.307083l-3.0288696 -33.307083l9.083984 27.249344l-4.5433044 -28.763786l12.112854 -3.7847748l7.5695496 38.6063l-1.5144348 -44.661415l8.32547 -5.2992134l3.7847595 37.09186l1.5144653 -38.603672z" fill-rule="evenodd"/><path fill="#0f0a07" d="m158.2021 147.6063l-3.0288696 18.16536l-0.75590515 14.383209l-12.868774 1.5118103l3.0288696 -11.35434l-18.167976 8.3280945l-53.742783 7.5695496l54.501312 -11.35434l18.923882 -12.868759z" fill-rule="evenodd"/></g></svg>